# xmcd
#
# Track frame offsets:
#	150
#	14300
#	23182
#	39707
#	57410
#	70340
#	86912
#	100100
#	116025
#	129235
#	148817
#	165555
#	178472
#	198730
#	220235
#	236557
#	253772
#
# Disc length: 3670
#
# Revision: 1
# Processed by: cddbd v1.5.1PL0 Copyright (c) Steve Scherf et al.
# Submitted via: FreeRIP 2.40 
# Normalized: r0:DSETVAR1,TDELIM( - )
#
DISCID=030e5411
DTITLE=Various Artist - John Boy and Billy's Country Race Tracks
DYEAR=1999
DGENRE=Country
TTITLE0=Brooks and Dunn - Honky Tonk Truth
TTITLE1=Tim Wilson - Dale Darrell Waltrip Richard Petty Rusty Awesome Bill Irvin Gordon Earnhardt Smith... Johnson, Jr.
TTITLE2=Alabama - Roll On
TTITLE3=Alan Jackson - Who's Cheating Who
TTITLE4=Robert Earl Keen - That Buckin' Song
TTITLE5=Cledus T. Judd - Nascar Races
TTITLE6=Steve Wariner - Drive
TTITLE7=Steve Earle - Hillbilly Highway
TTITLE8=Diamond Rio - Norma Jean Riley
TTITLE9=Lee Roy Parnell - On The Road
TTITLE10=The Tractors - Baby Likes To Rock It
TTITLE11=Aaron Tippin - You've Got To Stand For Something
TTITLE12=Pam Tillis - Betty's Got a Bass Boat
TTITLE13=BR5-49 - 18 Wheels and a Crowbar
TTITLE14=BlackHawk - Down In Flames
TTITLE15=Asleep At The Wheel - (Get Your Kicks) On Route 66 (Live)
TTITLE16=Bonus Track - Driver and Pit Crew Conversation
EXTD=
EXTT0=
EXTT1=
EXTT2=
EXTT3=
EXTT4=
EXTT5=
EXTT6=
EXTT7=
EXTT8=
EXTT9=
EXTT10=
EXTT11=
EXTT12=
EXTT13=
EXTT14=
EXTT15=
EXTT16=
PLAYORDER=
